<?xml version="1.0" encoding="UTF-8"?>
<!DOCTYPE svg PUBLIC "-//W3C//DTD SVG 1.1//EN" "http://www.w3.org/Graphics/SVG/1.1/DTD/svg11.dtd">
<!-- Creator: CorelDRAW 2020 (64-Bit) -->
<svg xmlns="http://www.w3.org/2000/svg" xml:space="preserve" width="2480px" height="3508px" version="1.1" style="shape-rendering:geometricPrecision; text-rendering:geometricPrecision; image-rendering:optimizeQuality; fill-rule:evenodd; clip-rule:evenodd"
viewBox="0 0 2480 3507.43"
 xmlns:xlink="http://www.w3.org/1999/xlink"
 xmlns:xodm="http://www.corel.com/coreldraw/odm/2003">
 <defs>
  <style type="text/css">
   <![CDATA[
    .str5 {stroke:white;stroke-width:1.56;stroke-miterlimit:22.9256}
    .str4 {stroke:#4C4CFF;stroke-width:3.12;stroke-miterlimit:22.9256}
    .str1 {stroke:white;stroke-width:1.56;stroke-linecap:round;stroke-linejoin:round;stroke-miterlimit:22.9256}
    .str3 {stroke:#00CCCC;stroke-width:3.12;stroke-linecap:round;stroke-linejoin:round;stroke-miterlimit:22.9256}
    .str0 {stroke:#4C4CFF;stroke-width:3.12;stroke-linecap:round;stroke-linejoin:round;stroke-miterlimit:22.9256}
    .str2 {stroke:#E33CD5;stroke-width:3.12;stroke-linecap:round;stroke-linejoin:round;stroke-miterlimit:22.9256}
    .fil0 {fill:none}
   ]]>
  </style>
 </defs>
 <g id="Слой_x0020_1">
  <metadata id="CorelCorpID_0Corel-Layer"/>
  <g id="_1611821726048" filter="url(#filter0_f)">
   <path class="fil0 str0" d="M1285.35 1793.19c1.56,-1.92 0.15,-4.67 -2.32,-4.71 -31.58,-0.52 -57.99,0.07 -90.66,2.05 -2.47,0.15 -3.75,2.96 -2.1,4.81 11.44,12.81 28.09,20.87 46.62,20.87 19.55,0 37,-8.97 48.46,-23.02z"/>
   <path class="fil0 str0" d="M1182.64 1722.65c-1.22,2.12 0.58,4.6 3.01,4.31 36.14,-4.34 62.78,-5.63 100.56,-3.34 2.46,0.15 4.11,-2.44 2.75,-4.49 -11.2,-16.82 -30.34,-27.91 -52.07,-27.91 -23.21,0 -43.47,12.65 -54.25,31.43z"/>
  </g>
  <g id="_1611821726960" filter="url(#filter1_f)">
   <path class="fil0 str0" d="M1285.35 1793.19c1.56,-1.92 0.15,-4.67 -2.32,-4.71 -31.58,-0.52 -57.99,0.07 -90.66,2.05 -2.47,0.15 -3.75,2.96 -2.1,4.81 11.44,12.81 28.09,20.87 46.62,20.87 19.55,0 37,-8.97 48.46,-23.02z"/>
   <path class="fil0 str0" d="M1182.64 1722.65c-1.22,2.12 0.58,4.6 3.01,4.31 36.14,-4.34 62.78,-5.63 100.56,-3.34 2.46,0.15 4.11,-2.44 2.75,-4.49 -11.2,-16.82 -30.34,-27.91 -52.07,-27.91 -23.21,0 -43.47,12.65 -54.25,31.43z"/>
  </g>
  <path class="fil0 str0" d="M1285.35 1793.19c1.56,-1.92 0.15,-4.67 -2.32,-4.71 -31.58,-0.52 -57.99,0.07 -90.66,2.05 -2.47,0.15 -3.75,2.96 -2.1,4.81 11.44,12.81 28.09,20.87 46.62,20.87 19.55,0 37,-8.97 48.46,-23.02z"/>
  <path class="fil0 str0" d="M1182.64 1722.65c-1.22,2.12 0.58,4.6 3.01,4.31 36.14,-4.34 62.78,-5.63 100.56,-3.34 2.46,0.15 4.11,-2.44 2.75,-4.49 -11.2,-16.82 -30.34,-27.91 -52.07,-27.91 -23.21,0 -43.47,12.65 -54.25,31.43z"/>
  <path class="fil0 str1" d="M1285.35 1793.19c1.56,-1.92 0.15,-4.67 -2.32,-4.71 -31.58,-0.52 -57.99,0.07 -90.66,2.05 -2.47,0.15 -3.75,2.96 -2.1,4.81 11.44,12.81 28.09,20.87 46.62,20.87 19.55,0 37,-8.97 48.46,-23.02z"/>
  <path class="fil0 str1" d="M1182.64 1722.65c-1.22,2.12 0.58,4.6 3.01,4.31 36.14,-4.34 62.78,-5.63 100.56,-3.34 2.46,0.15 4.11,-2.44 2.75,-4.49 -11.2,-16.82 -30.34,-27.91 -52.07,-27.91 -23.21,0 -43.47,12.65 -54.25,31.43z"/>
  <g id="_1611821722592" filter="url(#filter2_f)">
   <path class="fil0 str2" d="M1298.93 1761.42c0.4,-3.29 -2.15,-6.11 -5.45,-6.37 -40.25,-3.25 -71.65,-3.76 -113.19,-1.57 -3.31,0.17 -5.94,2.92 -5.63,6.22 0.44,4.68 1.4,9.22 2.82,13.54 0.82,2.49 3.25,4.04 5.87,3.95 39.1,-1.36 69.34,-1.46 107.26,-0.43 2.62,0.07 5.04,-1.49 5.84,-3.99 1.17,-3.65 2,-7.45 2.48,-11.35z"/>
  </g>
  <g id="_1611821723120" filter="url(#filter3_f)">
   <path class="fil0 str2" d="M1298.93 1761.42c0.4,-3.29 -2.15,-6.11 -5.45,-6.37 -40.25,-3.25 -71.65,-3.76 -113.19,-1.57 -3.31,0.17 -5.94,2.92 -5.63,6.22 0.44,4.68 1.4,9.22 2.82,13.54 0.82,2.49 3.25,4.04 5.87,3.95 39.1,-1.36 69.34,-1.46 107.26,-0.43 2.62,0.07 5.04,-1.49 5.84,-3.99 1.17,-3.65 2,-7.45 2.48,-11.35z"/>
  </g>
  <path class="fil0 str2" d="M1298.93 1761.42c0.4,-3.29 -2.15,-6.11 -5.45,-6.37 -40.25,-3.25 -71.65,-3.76 -113.19,-1.57 -3.31,0.17 -5.94,2.92 -5.63,6.22 0.44,4.68 1.4,9.22 2.82,13.54 0.82,2.49 3.25,4.04 5.87,3.95 39.1,-1.36 69.34,-1.46 107.26,-0.43 2.62,0.07 5.04,-1.49 5.84,-3.99 1.17,-3.65 2,-7.45 2.48,-11.35z"/>
  <path class="fil0 str1" d="M1298.93 1761.42c0.4,-3.29 -2.15,-6.11 -5.45,-6.37 -40.25,-3.25 -71.65,-3.76 -113.19,-1.57 -3.31,0.17 -5.94,2.92 -5.63,6.22 0.44,4.68 1.4,9.22 2.82,13.54 0.82,2.49 3.25,4.04 5.87,3.95 39.1,-1.36 69.34,-1.46 107.26,-0.43 2.62,0.07 5.04,-1.49 5.84,-3.99 1.17,-3.65 2,-7.45 2.48,-11.35z"/>
  <g id="_1611821723024" filter="url(#filter4_f)">
   <path class="fil0 str3" d="M1174.38 1739.65c8.34,-6.25 16.67,-6.25 25,0 8.33,6.25 16.66,6.25 25,0 8.33,-6.25 16.66,-6.25 24.99,0 8.34,6.25 16.67,6.25 25,0 8.33,-6.25 16.66,-6.25 25,0"/>
  </g>
  <g id="_1611821722640" filter="url(#filter5_f)">
   <path class="fil0 str3" d="M1174.38 1739.65c8.34,-6.25 16.67,-6.25 25,0 8.33,6.25 16.66,6.25 25,0 8.33,-6.25 16.66,-6.25 24.99,0 8.34,6.25 16.67,6.25 25,0 8.33,-6.25 16.66,-6.25 25,0"/>
  </g>
  <path class="fil0 str3" d="M1174.38 1739.65c8.34,-6.25 16.67,-6.25 25,0 8.33,6.25 16.66,6.25 25,0 8.33,-6.25 16.66,-6.25 24.99,0 8.34,6.25 16.67,6.25 25,0 8.33,-6.25 16.66,-6.25 25,0"/>
  <path class="fil0 str1" d="M1174.38 1739.65c8.34,-6.25 16.67,-6.25 25,0 8.33,6.25 16.66,6.25 25,0 8.33,-6.25 16.66,-6.25 24.99,0 8.34,6.25 16.67,6.25 25,0 8.33,-6.25 16.66,-6.25 25,0"/>
  <g id="_1611821718320" filter="url(#filter6_f)">
   <ellipse class="fil0 str4" transform="matrix(0.885492 0.464655 0.464655 -0.885492 1215.73 1800.52)" rx="3.12" ry="2.34"/>
   <ellipse class="fil0 str4" transform="matrix(0.965926 0.258819 -0.258819 0.965926 1264.08 1711.08)" rx="4.69" ry="3.12"/>
   <ellipse class="fil0 str4" transform="matrix(0.965926 -0.258819 -0.258819 -0.965926 1256.12 1800.53)" rx="3.12" ry="2.34"/>
   <ellipse class="fil0 str4" cx="1232.19" cy="1713.09" rx="4.69" ry="3.12"/>
   <ellipse class="fil0 str4" transform="matrix(0.965926 0.258819 -0.258819 0.965926 1245.34 1701.7)" rx="4.69" ry="3.12"/>
   <ellipse class="fil0 str4" cx="1236.88" cy="1806.05" rx="3.12" ry="2.34"/>
   <ellipse class="fil0 str4" transform="matrix(0.885492 -0.464655 0.464655 0.885492 1211.23 1708.67)" rx="4.69" ry="3.12"/>
  </g>
  <g id="_1611821716640" filter="url(#filter7_f)">
   <ellipse class="fil0 str4" transform="matrix(0.885492 0.464655 0.464655 -0.885492 1215.73 1800.52)" rx="3.12" ry="2.34"/>
   <ellipse class="fil0 str4" transform="matrix(0.965926 0.258819 -0.258819 0.965926 1264.08 1711.08)" rx="4.69" ry="3.12"/>
   <ellipse class="fil0 str4" transform="matrix(0.965926 -0.258819 -0.258819 -0.965926 1256.12 1800.53)" rx="3.12" ry="2.34"/>
   <ellipse class="fil0 str4" cx="1232.19" cy="1713.09" rx="4.69" ry="3.12"/>
   <ellipse class="fil0 str4" transform="matrix(0.965926 0.258819 -0.258819 0.965926 1245.34 1701.7)" rx="4.69" ry="3.12"/>
   <ellipse class="fil0 str4" cx="1236.88" cy="1806.05" rx="3.12" ry="2.34"/>
   <ellipse class="fil0 str4" transform="matrix(0.885492 -0.464655 0.464655 0.885492 1211.23 1708.67)" rx="4.69" ry="3.12"/>
  </g>
  <ellipse class="fil0 str4" transform="matrix(0.885492 0.464655 0.464655 -0.885492 1215.73 1800.52)" rx="3.12" ry="2.34"/>
  <ellipse class="fil0 str4" transform="matrix(0.965926 0.258819 -0.258819 0.965926 1264.08 1711.08)" rx="4.69" ry="3.12"/>
  <ellipse class="fil0 str4" transform="matrix(0.965926 -0.258819 -0.258819 -0.965926 1256.12 1800.53)" rx="3.12" ry="2.34"/>
  <ellipse class="fil0 str4" cx="1232.19" cy="1713.09" rx="4.69" ry="3.12"/>
  <ellipse class="fil0 str4" transform="matrix(0.965926 0.258819 -0.258819 0.965926 1245.34 1701.7)" rx="4.69" ry="3.12"/>
  <ellipse class="fil0 str4" cx="1236.88" cy="1806.05" rx="3.12" ry="2.34"/>
  <ellipse class="fil0 str4" transform="matrix(0.885492 -0.464655 0.464655 0.885492 1211.23 1708.67)" rx="4.69" ry="3.12"/>
  <ellipse class="fil0 str5" transform="matrix(0.885492 0.464655 0.464655 -0.885492 1215.73 1800.52)" rx="3.12" ry="2.34"/>
  <ellipse class="fil0 str5" transform="matrix(0.965926 0.258819 -0.258819 0.965926 1264.08 1711.08)" rx="4.69" ry="3.12"/>
  <ellipse class="fil0 str5" transform="matrix(0.965926 -0.258819 -0.258819 -0.965926 1256.12 1800.53)" rx="3.12" ry="2.34"/>
  <ellipse class="fil0 str5" cx="1232.19" cy="1713.09" rx="4.69" ry="3.12"/>
  <ellipse class="fil0 str5" transform="matrix(0.965926 0.258819 -0.258819 0.965926 1245.34 1701.7)" rx="4.69" ry="3.12"/>
  <ellipse class="fil0 str5" cx="1236.88" cy="1806.05" rx="3.12" ry="2.34"/>
  <ellipse class="fil0 str5" transform="matrix(0.885492 -0.464655 0.464655 0.885492 1211.23 1708.67)" rx="4.69" ry="3.12"/>
 </g>
</svg>
